<?xml version="1.0" standalone="no"?>
<!DOCTYPE svg PUBLIC "-//W3C//DTD SVG 20010904//EN"
 "http://www.w3.org/TR/2001/REC-SVG-20010904/DTD/svg10.dtd">
<svg version="1.0" xmlns="http://www.w3.org/2000/svg"
 width="1587.000000pt" height="2245.000000pt" viewBox="0 0 1587.000000 2245.000000"
 preserveAspectRatio="xMidYMid meet">

<g transform="translate(0.000000,2245.000000) scale(0.100000,-0.100000)"
fill="#000000" stroke="none">
<path d="M0 11225 l0 -11225 7935 0 7935 0 0 11225 0 11225 -7935 0 -7935 0 0
-11225z m6560 1810 l0 -135 -200 0 -200 0 0 -95 0 -95 185 0 185 0 0 -135 0
-135 -185 0 -185 0 0 -115 0 -115 200 0 200 0 0 -140 0 -140 -370 0 -370 0 0
620 0 620 370 0 370 0 0 -135z m866 -133 c7 -5 7 -43 -2 -132 -7 -69 -13 -137
-13 -152 l-1 -26 -109 -4 c-118 -3 -141 -12 -185 -72 -20 -26 -21 -43 -24
-307 l-3 -279 -170 0 -169 0 2 483 3 482 124 0 125 0 25 -77 c14 -43 28 -78
32 -78 4 0 17 16 29 35 26 42 83 88 141 115 45 20 172 28 195 12z m811 0 c9
-6 9 -39 -2 -147 -8 -77 -15 -145 -15 -152 0 -7 -35 -12 -109 -15 -127 -4
-151 -15 -188 -88 -22 -43 -23 -54 -23 -307 l0 -263 -170 0 -170 0 2 483 3
482 124 0 125 0 26 -72 c14 -40 28 -74 31 -78 3 -3 18 12 33 33 31 45 103 100
155 118 39 14 159 18 178 6z m711 -7 c220 -52 352 -235 352 -490 0 -306 -183
-495 -480 -495 -297 0 -479 191 -480 502 0 48 5 111 11 140 27 131 113 249
219 303 103 52 257 68 378 40z m1209 7 c9 -6 9 -39 -2 -147 -8 -77 -15 -145
-15 -152 0 -7 -35 -12 -109 -15 -127 -4 -151 -15 -188 -88 -22 -43 -23 -54
-23 -307 l0 -263 -170 0 -170 0 2 483 3 482 124 0 125 0 26 -72 c14 -40 28
-74 31 -78 3 -3 18 12 33 33 31 45 103 100 155 118 39 14 159 18 178 6z
m-5637 -1962 l0 -120 20 20 c29 29 63 40 123 40 65 0 113 -27 133 -76 11 -26
14 -71 12 -192 l-3 -157 -26 -3 -27 -3 -3 158 c-3 130 -7 164 -21 185 -22 33
-75 45 -129 29 -65 -20 -74 -43 -77 -218 l-4 -153 -29 0 -29 0 0 305 0 305 30
0 30 0 0 -120z m4588 -192 l2 -298 -30 0 c-26 0 -30 4 -30 26 l0 25 -37 -28
c-31 -24 -46 -28 -102 -28 -81 0 -124 26 -154 94 -31 69 -29 183 4 248 52 101
181 124 269 47 13 -11 15 -1 12 87 -5 119 -1 131 35 127 l28 -3 3 -297z
m-4114 276 c22 -9 21 -61 -2 -73 -26 -14 -52 5 -52 39 0 34 21 47 54 34z
m-614 -34 l0 -30 -90 0 -90 0 0 -255 0 -255 -30 0 -30 0 0 255 0 255 -90 0
-90 0 0 30 0 30 210 0 210 0 0 -30z m3240 -70 l0 -50 60 0 c57 0 60 -1 60 -25
0 -24 -3 -25 -60 -25 l-60 0 0 -140 c0 -137 1 -142 25 -166 22 -22 31 -25 65
-19 38 6 40 5 40 -18 0 -60 -144 -46 -177 17 -13 23 -18 67 -21 179 l-4 147
-29 0 c-40 0 -37 26 5 44 27 11 35 22 45 60 9 35 16 46 31 46 17 0 20 -7 20
-50z m4160 0 l0 -50 60 0 c57 0 60 -1 60 -25 0 -24 -3 -25 -60 -25 l-60 0 0
-140 c0 -137 1 -142 25 -166 22 -22 31 -25 65 -19 38 6 40 5 40 -18 0 -60
-144 -46 -177 17 -13 23 -18 67 -21 179 l-4 147 -29 0 c-40 0 -37 26 5 44 27
11 35 22 45 60 9 35 16 46 31 46 17 0 20 -7 20 -50z m-6424 -51 c30 -8 44 -17
44 -28 0 -36 -13 -40 -74 -24 -48 12 -67 13 -98 3 -43 -12 -53 -28 -44 -63 6
-25 9 -27 129 -81 67 -30 80 -40 93 -72 21 -51 2 -110 -44 -137 -41 -24 -143
-33 -199 -18 -39 11 -43 15 -43 42 0 25 3 30 17 25 43 -17 111 -26 145 -21 48
8 68 28 68 65 0 35 -18 49 -111 86 -87 35 -119 67 -119 117 0 53 15 76 63 98
48 21 108 24 173 8z m629 -5 c16 -7 19 -31 7 -52 -7 -9 -16 -10 -41 -1 -41 15
-107 6 -133 -18 -62 -55 -66 -201 -8 -263 25 -26 35 -30 83 -30 31 0 68 4 82
10 25 10 26 9 23 -22 -3 -37 -22 -45 -102 -47 -108 -2 -180 67 -192 185 -13
126 41 219 141 245 30 8 112 3 140 -7z m403 -21 c71 -57 98 -162 68 -265 -29
-102 -115 -152 -228 -133 -57 10 -121 72 -138 135 -30 112 11 238 92 279 62
32 155 25 206 -16z m978 12 c45 -29 54 -69 54 -245 l0 -160 -29 0 -29 0 -4
158 c-2 96 -9 166 -16 179 -15 28 -70 44 -117 33 -80 -18 -95 -56 -95 -235 l0
-135 -30 0 -30 0 0 210 0 210 25 0 c18 0 25 -5 25 -19 0 -27 15 -34 31 -14 37
44 159 55 215 18z m704 -5 c0 -29 -2 -30 -45 -30 -37 0 -52 -6 -81 -33 -44
-40 -53 -79 -54 -229 l0 -108 -30 0 -30 0 0 211 0 210 28 -3 c22 -2 28 -9 32
-38 l5 -35 18 26 c23 35 72 58 120 59 35 0 37 -2 37 -30z m1458 -7 c71 -57 98
-162 68 -265 -29 -102 -115 -152 -228 -133 -57 10 -121 72 -138 135 -30 112
11 238 92 279 62 32 155 25 206 -16z m425 23 c61 -26 89 -70 102 -163 l7 -52
-149 -3 -148 -3 4 -30 c10 -85 60 -120 160 -112 36 3 76 8 89 12 21 7 23 5 20
-20 -4 -39 -60 -58 -150 -52 -125 8 -188 79 -188 209 0 109 34 177 104 209 49
22 105 24 149 5z m456 -5 c18 -10 19 -15 9 -37 -7 -16 -17 -23 -26 -19 -87 33
-177 23 -188 -21 -9 -36 15 -57 106 -94 89 -36 118 -62 126 -112 17 -102 -105
-164 -252 -127 -40 10 -44 14 -44 41 0 27 3 30 23 24 87 -25 114 -28 155 -17
28 8 46 20 53 35 18 40 -5 64 -105 110 -102 47 -126 72 -126 126 1 74 65 113
177 106 39 -2 80 -9 92 -15z m616 5 c66 -28 75 -59 75 -248 l0 -168 -30 0 -30
0 0 145 c0 174 -10 208 -64 223 -43 12 -102 0 -128 -26 -28 -28 -37 -82 -38
-219 l0 -123 -30 0 -30 0 0 210 0 210 25 0 c18 0 26 -7 31 -26 l6 -25 22 20
c44 42 127 53 191 27z m493 -23 c71 -57 98 -162 68 -265 -29 -102 -115 -152
-228 -133 -57 10 -121 72 -138 135 -30 112 11 238 92 279 62 32 155 25 206
-16z m-6508 -183 l0 -210 -35 0 -35 0 0 210 0 210 35 0 35 0 0 -210z m1632 45
c3 -154 4 -166 25 -187 28 -28 108 -30 147 -4 40 26 48 58 54 214 l5 142 28 0
29 0 0 -211 0 -210 -27 3 c-20 2 -29 9 -31 26 l-3 23 -30 -25 c-72 -61 -207
-41 -246 35 -9 16 -13 78 -13 192 l0 167 29 0 30 0 3 -165z m1547 78 c19 -49
48 -128 66 -177 l32 -88 63 176 63 176 34 0 c24 0 34 -4 31 -12 -3 -7 -47
-125 -99 -262 -115 -305 -133 -330 -225 -331 -57 0 -59 1 -62 27 -3 26 -1 27
26 22 47 -10 90 19 116 78 l23 51 -84 209 c-45 114 -83 210 -83 213 0 3 15 5
33 5 32 0 33 -2 66 -87z m-2929 -883 c12 -22 0 -55 -22 -63 -22 -7 -48 13 -48
36 0 45 50 64 70 27z m2054 14 c22 -9 21 -61 -2 -73 -26 -14 -52 5 -52 39 0
34 21 47 54 34z m2246 -14 c12 -22 0 -55 -22 -63 -22 -7 -48 13 -48 36 0 45
50 64 70 27z m-3720 -90 l0 -50 60 0 c57 0 60 -1 60 -25 0 -24 -3 -25 -60 -25
l-60 0 0 -140 c0 -138 1 -141 26 -167 22 -22 31 -24 65 -19 37 6 39 5 39 -19
0 -30 -30 -40 -93 -32 -30 4 -50 15 -69 37 -28 30 -28 30 -28 185 l0 155 -30
0 c-40 0 -40 25 0 45 22 12 33 26 41 60 8 33 16 45 30 45 16 0 19 -8 19 -50z
m3240 0 l0 -50 60 0 c57 0 60 -1 60 -25 0 -24 -3 -25 -60 -25 l-60 0 0 -140
c0 -137 1 -142 25 -166 22 -22 31 -25 65 -19 38 6 40 5 40 -18 0 -60 -144 -46
-177 17 -13 23 -18 67 -21 179 l-4 147 -29 0 c-40 0 -37 26 5 44 27 11 35 22
45 60 9 35 16 46 31 46 17 0 20 -7 20 -50z m-4504 -59 c54 -25 84 -75 91 -151
l6 -60 -147 0 c-140 0 -146 -1 -146 -20 0 -35 26 -86 56 -109 26 -21 37 -23
104 -18 41 2 83 8 93 12 14 6 17 2 17 -23 0 -27 -4 -31 -44 -41 -138 -34 -249
14 -281 123 -19 63 -19 109 0 172 15 52 61 105 105 123 40 16 101 12 146 -8z
m1063 0 c18 -10 19 -15 9 -37 -7 -16 -17 -23 -26 -19 -87 33 -177 23 -188 -21
-9 -36 15 -57 106 -94 89 -36 118 -62 126 -112 17 -102 -105 -164 -252 -127
-40 10 -44 14 -44 41 0 27 3 30 23 24 87 -25 114 -28 155 -17 28 8 46 20 53
35 18 40 -5 64 -105 110 -102 47 -126 72 -126 126 1 74 65 113 177 106 39 -2
80 -9 92 -15z m899 -13 c62 -41 85 -99 81 -202 -3 -70 -8 -89 -32 -125 -70
-105 -243 -107 -311 -4 -62 93 -51 250 21 315 60 55 171 62 241 16z m438 10
c-3 -13 -6 -26 -6 -30 0 -5 -17 -8 -37 -8 -50 0 -95 -29 -116 -73 -13 -27 -17
-64 -17 -166 l0 -131 -30 0 -30 0 0 210 0 210 25 0 c22 0 25 -4 25 -35 0 -40
9 -44 28 -15 21 34 73 60 121 60 40 0 43 -2 37 -22z m700 11 c30 -8 44 -17 44
-28 0 -36 -13 -40 -74 -24 -48 12 -67 13 -98 3 -43 -12 -53 -28 -44 -63 6 -25
9 -27 129 -81 67 -30 80 -40 93 -72 21 -51 2 -110 -44 -137 -41 -24 -143 -33
-199 -18 -39 11 -43 15 -43 42 0 25 3 30 17 25 43 -17 111 -26 145 -21 48 8
68 28 68 65 0 35 -18 49 -111 86 -87 35 -119 67 -119 117 0 53 15 76 63 98 48
21 108 24 173 8z m649 -3 c66 -28 75 -59 75 -248 l0 -168 -30 0 -30 0 0 145
c0 174 -10 208 -64 223 -43 12 -102 0 -128 -26 -28 -28 -37 -82 -38 -219 l0
-123 -30 0 -30 0 0 210 0 210 25 0 c18 0 26 -7 31 -26 l6 -25 22 20 c44 42
127 53 191 27z m493 -23 c71 -57 98 -162 68 -265 -29 -102 -115 -152 -228
-133 -57 10 -121 72 -138 135 -30 112 11 238 92 279 62 32 155 25 206 -16z
m1178 12 c45 -29 54 -69 54 -245 l0 -160 -29 0 -29 0 -4 158 c-2 96 -9 166
-16 179 -15 28 -70 44 -117 33 -80 -18 -95 -56 -95 -235 l0 -135 -30 0 -30 0
0 210 0 210 25 0 c18 0 25 -5 25 -19 0 -27 15 -34 31 -14 37 44 159 55 215 18z
m672 -7 c62 -41 85 -99 81 -202 -3 -70 -8 -89 -32 -125 -70 -105 -243 -107
-311 -4 -62 93 -51 250 21 315 60 55 171 62 241 16z m922 2 c0 -29 -2 -30 -45
-30 -37 0 -52 -6 -81 -33 -44 -40 -53 -79 -54 -229 l0 -108 -30 0 -30 0 0 211
0 210 28 -3 c22 -2 28 -9 32 -38 l5 -35 18 26 c23 35 72 58 120 59 35 0 37 -2
37 -30z m-6729 -55 c29 -41 55 -75 59 -75 3 0 29 34 58 75 49 70 55 75 88 75
28 0 34 -3 27 -12 -38 -51 -133 -187 -133 -192 0 -5 110 -162 143 -203 7 -10
0 -13 -29 -13 -37 1 -41 4 -92 80 -30 44 -58 80 -62 80 -5 0 -34 -36 -64 -80
-53 -75 -59 -80 -92 -80 l-36 0 45 63 c24 34 59 83 77 108 l32 46 -64 89 c-88
122 -85 114 -44 114 32 0 39 -6 87 -75z m399 -135 l0 -210 -30 0 -30 0 0 210
0 210 30 0 30 0 0 -210z m2070 0 l0 -210 -35 0 -35 0 0 210 0 210 35 0 35 0 0
-210z m2230 0 l0 -210 -30 0 -30 0 0 210 0 210 30 0 30 0 0 -210z m1370 48 c1
-178 4 -190 58 -209 40 -14 101 3 133 37 23 24 24 32 27 180 l4 154 34 0 34 0
0 -210 0 -210 -30 0 c-22 0 -30 5 -30 18 0 31 -11 33 -42 7 -51 -43 -160 -45
-212 -4 -37 29 -46 76 -46 247 l0 152 35 0 35 0 0 -162z m-4272 -1061 l2 -298
-27 3 c-19 2 -29 10 -33 27 -5 22 -6 23 -20 6 -39 -48 -131 -58 -200 -22 -61
31 -84 78 -89 185 -3 73 0 89 23 137 21 42 36 58 70 74 68 34 144 25 194 -21
l22 -21 0 117 0 117 28 -3 27 -3 3 -298z m1357 187 l0 -111 34 26 c29 22 45
26 100 26 54 0 72 -5 100 -24 49 -35 74 -100 75 -193 0 -96 -30 -161 -90 -196
-54 -32 -137 -27 -187 11 l-35 26 -6 -24 c-5 -18 -13 -25 -31 -25 l-25 0 0
293 c0 162 3 297 7 301 4 4 19 6 33 4 l25 -3 0 -111z m-715 -14 l0 -50 65 0
c63 0 65 -1 65 -25 0 -24 -2 -25 -66 -25 l-66 0 4 -145 c4 -169 9 -181 83
-179 40 1 45 -1 45 -21 0 -26 -17 -35 -65 -35 -51 0 -83 16 -105 52 -18 29
-20 51 -20 181 l0 147 -30 0 c-39 0 -40 24 -1 45 19 9 34 28 41 52 16 50 19
53 36 53 10 0 14 -13 14 -50z m-248 -64 c42 -28 48 -55 48 -236 l0 -170 -25 0
c-20 0 -25 5 -25 25 0 29 -12 32 -31 8 -37 -44 -142 -57 -196 -23 -39 23 -55
52 -57 101 -2 87 61 129 192 129 l82 0 0 35 c0 97 -54 120 -187 80 -16 -5 -24
-1 -32 14 -12 22 1 33 58 52 39 13 145 4 173 -15z m697 8 c63 -25 71 -53 71
-248 l0 -166 -25 0 c-18 0 -25 5 -25 18 0 31 -11 32 -47 5 -45 -34 -125 -43
-176 -18 -59 28 -83 104 -52 165 23 45 68 63 170 70 l90 5 -1 42 c-1 79 -54
106 -150 78 -31 -9 -57 -15 -59 -13 -1 2 -6 13 -9 25 -6 20 -1 24 41 37 64 19
124 20 172 0z m926 2 c63 -27 70 -49 74 -244 l3 -174 -28 4 c-21 2 -30 9 -32
26 -4 26 -14 28 -33 5 -50 -59 -189 -54 -233 8 -26 37 -21 111 10 148 31 37
77 51 172 51 l72 0 0 45 c0 79 -51 108 -145 81 -60 -18 -75 -15 -75 14 0 39
147 64 215 36z m421 3 c24 -6 44 -13 44 -15 0 -1 -4 -14 -10 -28 -8 -23 -12
-25 -37 -15 -15 6 -54 11 -85 12 -48 1 -62 -2 -80 -21 -37 -36 -11 -69 87
-109 98 -41 135 -77 135 -132 0 -81 -81 -129 -199 -118 -75 6 -101 20 -101 54
0 22 3 24 23 19 82 -24 133 -28 169 -13 42 18 59 56 37 84 -8 9 -55 35 -104
58 -102 48 -115 59 -122 113 -12 92 104 146 243 111z m400 -8 c54 -25 84 -75
91 -151 l6 -60 -147 0 c-140 0 -146 -1 -146 -20 0 -35 26 -86 56 -109 26 -21
37 -23 104 -18 41 2 83 8 93 12 14 6 17 2 17 -23 0 -27 -4 -31 -44 -41 -138
-34 -249 14 -281 123 -19 63 -19 109 0 172 15 52 61 105 105 123 40 16 101 12
146 -8z"/>
<path d="M8762 12645 c-56 -25 -77 -86 -77 -230 0 -179 30 -242 118 -252 54
-6 101 16 122 57 28 54 41 180 27 270 -13 94 -34 134 -78 155 -39 18 -69 19
-112 0z"/>
<path d="M8873 10815 c-48 -20 -68 -66 -68 -155 0 -92 22 -137 77 -158 55 -21
117 0 140 48 23 45 24 169 3 215 -25 52 -95 75 -152 50z"/>
<path d="M6230 10817 c-20 -7 -44 -27 -58 -47 -21 -31 -23 -44 -20 -117 2 -64
8 -88 24 -110 48 -64 150 -65 196 0 20 27 23 44 23 117 0 102 -21 142 -83 160
-44 12 -38 12 -82 -3z"/>
<path d="M9370 10817 c-20 -7 -44 -27 -58 -47 -21 -31 -23 -44 -20 -117 2 -64
8 -88 24 -110 48 -64 150 -65 196 0 20 27 23 44 23 117 0 102 -21 142 -83 160
-44 12 -38 12 -82 -3z"/>
<path d="M9843 10819 c-34 -10 -73 -62 -73 -98 0 -20 4 -21 110 -21 l110 0 -6
28 c-12 51 -33 80 -65 91 -36 12 -33 12 -76 0z"/>
<path d="M11360 10817 c-20 -7 -44 -27 -58 -47 -21 -31 -23 -44 -20 -117 2
-64 8 -88 24 -110 48 -64 150 -65 196 0 20 27 23 44 23 117 0 102 -21 142 -83
160 -44 12 -38 12 -82 -3z"/>
<path d="M4453 9706 c-34 -16 -58 -46 -68 -88 l-7 -28 112 0 113 0 -6 37 c-12
69 -80 106 -144 79z"/>
<path d="M6398 9713 c-64 -10 -105 -92 -95 -189 10 -98 51 -140 134 -138 33 1
51 7 73 29 62 60 62 217 -1 270 -17 14 -37 25 -44 25 -7 0 -19 2 -27 3 -7 2
-25 2 -40 0z"/>
<path d="M8660 9707 c-20 -7 -44 -27 -58 -47 -21 -31 -23 -44 -20 -117 2 -64
8 -88 24 -110 48 -64 150 -65 196 0 20 27 23 44 23 117 0 102 -21 142 -83 160
-44 12 -38 12 -82 -3z"/>
<path d="M10528 9713 c-64 -10 -105 -92 -95 -189 10 -98 51 -140 134 -138 33
1 51 7 73 29 62 60 62 217 -1 270 -17 14 -37 25 -44 25 -7 0 -19 2 -27 3 -7 2
-25 2 -40 0z"/>
<path d="M6424 8606 c-45 -20 -68 -75 -68 -161 1 -87 21 -131 71 -151 59 -25
134 2 154 54 6 15 11 62 10 104 0 81 -16 129 -49 147 -33 18 -87 21 -118 7z"/>
<path d="M8104 8611 c-44 -11 -54 -19 -70 -57 -19 -45 -18 -167 1 -209 38 -78
161 -81 200 -4 22 42 30 133 16 185 -19 69 -75 102 -147 85z"/>
<path d="M6880 8422 c-91 -45 -44 -156 58 -137 54 10 93 53 99 108 l6 47 -64
0 c-41 0 -77 -6 -99 -18z"/>
<path d="M7615 8433 c-35 -9 -65 -44 -65 -78 0 -59 66 -89 132 -62 44 18 68
53 75 107 l6 40 -64 -1 c-35 -1 -73 -3 -84 -6z"/>
<path d="M8530 8427 c-43 -15 -65 -55 -52 -95 12 -36 48 -54 95 -47 71 10 107
51 107 120 l0 35 -57 -1 c-32 0 -74 -5 -93 -12z"/>
<path d="M9373 8606 c-34 -16 -58 -46 -68 -88 l-7 -28 112 0 113 0 -6 37 c-12
69 -80 106 -144 79z"/>
</g>
</svg>
